<?xml version="1.0" encoding="utf-8"?>
<!-- Generator: Adobe Illustrator 17.1.0, SVG Export Plug-In . SVG Version: 6.00 Build 0)  -->
<!DOCTYPE svg PUBLIC "-//W3C//DTD SVG 1.1//EN" "http://www.w3.org/Graphics/SVG/1.1/DTD/svg11.dtd">
<svg version="1.1" id="Layer_1" xmlns="http://www.w3.org/2000/svg" xmlns:xlink="http://www.w3.org/1999/xlink" x="0px" y="0px"
	 viewBox="220 111.6 401.8 253" enable-background="new 220 111.6 401.8 253" xml:space="preserve">
<title>hamburger, more, options, menu</title>
<g>
	<path d="M607,223.2H234.9c-8.2,0-14.9,6.7-14.9,14.9c0,8.2,6.7,14.9,14.9,14.9H607c8.2,0,14.9-6.7,14.9-14.9
		C621.9,229.9,615.2,223.2,607,223.2z"/>
	<path d="M234.9,141.4H607c8.2,0,14.9-6.7,14.9-14.9s-6.7-14.9-14.9-14.9H234.9c-8.2,0-14.9,6.7-14.9,14.9S226.7,141.4,234.9,141.4z
		"/>
	<path d="M607,334.8H234.9c-8.2,0-14.9,6.7-14.9,14.9s6.7,14.9,14.9,14.9H607c8.2,0,14.9-6.7,14.9-14.9S615.2,334.8,607,334.8z"/>
</g>
</svg>
