<?xml version="1.0" encoding="utf-8"?>
<!-- Generator: Adobe Illustrator 17.1.0, SVG Export Plug-In . SVG Version: 6.00 Build 0)  -->
<!DOCTYPE svg PUBLIC "-//W3C//DTD SVG 1.1//EN" "http://www.w3.org/Graphics/SVG/1.1/DTD/svg11.dtd">
<svg version="1.1" id="Layer_1" xmlns="http://www.w3.org/2000/svg" xmlns:xlink="http://www.w3.org/1999/xlink" x="0px" y="0px"
	 viewBox="0 0 66.6 54" enable-background="new 0 0 66.6 54" xml:space="preserve">
<g>
	<defs>
		<filter id="Adobe_OpacityMaskFilter" filterUnits="userSpaceOnUse" x="0" y="11.1" width="29.8" height="29.4">
			<feFlood  style="flood-color:white;flood-opacity:1" result="back"/>
			<feBlend  in="SourceGraphic" in2="back" mode="normal"/>
		</filter>
	</defs>
	<mask maskUnits="userSpaceOnUse" x="0" y="11.1" width="29.8" height="29.4" id="SVGID_1_">
		<g filter="url(#Adobe_OpacityMaskFilter)">
			<g>
				<path d="M11.3,22.2c0.6-0.1,1.9-0.2,3.2-0.2c1.5,0,2.4,0.1,3.2,0.6c0.8,0.4,1.3,1.1,1.3,2.1c0,0.9-0.6,1.8-1.8,2.3v0
					c1.2,0.3,2.1,1.3,2.1,2.6c0,1-0.4,1.8-1.1,2.3c-0.8,0.6-2.1,1-4.2,1c-1.2,0-2.1-0.1-2.6-0.2V22.2z M13.7,26.3h0.8
					c1.3,0,2-0.5,2-1.3c0-0.8-0.6-1.2-1.7-1.2c-0.5,0-0.8,0-1,0.1V26.3z M13.7,31.1c0.2,0,0.5,0,0.9,0c1.1,0,2.1-0.4,2.1-1.6
					c0-1.1-1-1.5-2.2-1.5h-0.8V31.1z"/>
			</g>
		</g>
	</mask>
	<rect x="0" y="11.1" mask="url(#SVGID_1_)" fill="#FFFFFF" width="29.8" height="29.4"/>
	<g>
		<path fill="#FFFFFF" d="M37.5,22v10.8h-1.4V22H37.5z"/>
		<path fill="#FFFFFF" d="M39.9,32.8V22h1.5l3.4,5.5c0.8,1.3,1.4,2.4,1.9,3.5l0,0c-0.1-1.4-0.2-2.8-0.2-4.4V22H48v10.8h-1.4
			l-3.4-5.5c-0.8-1.2-1.5-2.4-2-3.6l0,0c0.1,1.4,0.1,2.7,0.1,4.4v4.6H39.9z"/>
		<path fill="#FFFFFF" d="M59.7,27.3c0,3.7-2.3,5.7-5,5.7c-2.9,0-4.9-2.2-4.9-5.5c0-3.4,2.1-5.7,5-5.7
			C57.8,21.9,59.7,24.1,59.7,27.3z M51.3,27.5c0,2.3,1.2,4.4,3.5,4.4s3.5-2,3.5-4.5c0-2.2-1.1-4.4-3.4-4.4
			C52.4,23,51.3,25.1,51.3,27.5z"/>
	</g>
	<rect x="29.6" y="11.8" fill="none" stroke="#FFFFFF" stroke-width="1.4173" stroke-miterlimit="10" width="36.1" height="28"/>
</g>
</svg>
